<svg xmlns="http://www.w3.org/2000/svg" width="1200" height="675" viewBox="0 0 1200 675" role="img" aria-label="Qwen QLoRA summary"><rect width="1200" height="675" fill="#f6fffd"/><rect x="28" y="28" width="1144" height="619" rx="22" fill="#ffffff" stroke="#ccefe7"/><text x="60" y="95" font-family="Arial" font-size="38" font-weight="700" fill="#0f766e">Turkish Qwen2.5-7B QLoRA — eğitim özeti</text><text x="60" y="132" font-family="Arial" font-size="22" fill="#3f7f75">Türkçe Alpaca SFT · Qwen/Qwen2.5-7B-Instruct tabanı · 4-bit QLoRA</text><rect x="60" y="170" width="450" height="190" rx="18" fill="#f1fffb" stroke="#ccefe7"/><text x="85" y="212" font-family="Arial" font-size="28" font-weight="700" fill="#0f766e">Durum</text><text x="85" y="255" font-family="Arial" font-size="48" font-weight="800" fill="#0f766e">Eğitim tamamlandı</text><text x="85" y="295" font-family="Arial" font-size="26" fill="#21574d">200 step · average train loss ~0.9459</text><text x="85" y="330" font-family="Arial" font-size="26" fill="#21574d">Final adapter ve checkpointler Drive'da</text><rect x="540" y="170" width="600" height="190" rx="18" fill="#fbfffe" stroke="#ccefe7"/><text x="565" y="212" font-family="Arial" font-size="28" font-weight="700" fill="#0f766e">Önemli not</text><text x="565" y="255" font-family="Arial" font-size="25" fill="#21574d">• Held-out evaluation yok.</text><text x="565" y="290" font-family="Arial" font-size="25" fill="#21574d">• Bu yüzden kalite iddiası değil, kayıtlı eğitim sonucu.</text><text x="565" y="325" font-family="Arial" font-size="25" fill="#21574d">• LoRA: r=8, alpha=16, dropout=0.05.</text><rect x="60" y="400" width="1080" height="205" rx="18" fill="#f6fffd" stroke="#ccefe7"/><text x="85" y="438" font-family="Arial" font-size="28" font-weight="700" fill="#0f766e">Train loss eğrisi (yaklaşık)</text><line x1="120" y1="555" x2="1040" y2="555" stroke="#9ad9c7" stroke-width="3"/><line x1="120" y1="470" x2="120" y2="555" stroke="#9ad9c7" stroke-width="3"/><path d="M130 460 C180 500, 240 512, 290 520 C350 528, 420 530, 500 536 C600 541, 720 543, 860 545 C930 546, 980 546, 1020 546" fill="none" stroke="#10b981" stroke-width="6" stroke-linecap="round"/><text x="135" y="452" font-family="Arial" font-size="22" fill="#21574d">3</text><text x="135" y="558" font-family="Arial" font-size="22" fill="#21574d">0</text><text x="122" y="590" font-family="Arial" font-size="22" fill="#21574d">0</text><text x="350" y="590" font-family="Arial" font-size="22" fill="#21574d">50</text><text x="565" y="590" font-family="Arial" font-size="22" fill="#21574d">100</text><text x="790" y="590" font-family="Arial" font-size="22" fill="#21574d">150</text><text x="1000" y="590" font-family="Arial" font-size="22" fill="#21574d">200</text><rect x="905" y="470" width="120" height="52" rx="14" fill="#10b981"/><text x="930" y="505" font-family="Arial" font-size="28" font-weight="700" fill="#ffffff">0.9459</text></svg>